<svg width="71" height="22" viewBox="0 0 71 22" fill="none" xmlns="http://www.w3.org/2000/svg">
<path d="M63.9933 0.749894C63.6138 0.275888 63.0394 0 62.4322 0H2C0.89543 0 -2.86102e-06 0.895431 -2.86102e-06 2V17C-2.86102e-06 18.1046 0.895428 19 2 19H62.4322C63.0394 19 63.6138 18.7241 63.9933 18.2501L69.999 10.7501C70.5841 10.0194 70.5841 8.9806 69.999 8.24989L63.9933 0.749894Z" fill="#5A47AB"/>
<g filter="url(#filter0_d_2_398)">
<path d="M7.344 13.048C6.92267 13.048 6.53333 12.9787 6.176 12.84C5.81867 12.696 5.50933 12.496 5.248 12.24C4.98667 11.984 4.78133 11.6827 4.632 11.336C4.488 10.9893 4.416 10.6107 4.416 10.2C4.416 9.78933 4.488 9.41067 4.632 9.064C4.78133 8.71733 4.98667 8.416 5.248 8.16C5.51467 7.904 5.82667 7.70667 6.184 7.568C6.54133 7.424 6.93067 7.352 7.352 7.352C7.75733 7.352 8.13867 7.42133 8.496 7.56C8.85333 7.69333 9.15467 7.896 9.4 8.168L9.024 8.544C8.79467 8.30933 8.54133 8.14133 8.264 8.04C7.98667 7.93333 7.688 7.88 7.368 7.88C7.032 7.88 6.72 7.93867 6.432 8.056C6.144 8.168 5.89333 8.33067 5.68 8.544C5.46667 8.752 5.29867 8.99733 5.176 9.28C5.05867 9.55733 5 9.864 5 10.2C5 10.536 5.05867 10.8453 5.176 11.128C5.29867 11.4053 5.46667 11.6507 5.68 11.864C5.89333 12.072 6.144 12.2347 6.432 12.352C6.72 12.464 7.032 12.52 7.368 12.52C7.688 12.52 7.98667 12.4667 8.264 12.36C8.54133 12.2533 8.79467 12.0827 9.024 11.848L9.4 12.224C9.15467 12.496 8.85333 12.7013 8.496 12.84C8.13867 12.9787 7.75467 13.048 7.344 13.048ZM10.542 13V7.064H11.11V13H10.542ZM14.4024 13.04C13.9971 13.04 13.6318 12.9493 13.3064 12.768C12.9864 12.5813 12.7331 12.328 12.5464 12.008C12.3598 11.6827 12.2664 11.312 12.2664 10.896C12.2664 10.4747 12.3598 10.104 12.5464 9.784C12.7331 9.464 12.9864 9.21333 13.3064 9.032C13.6264 8.85067 13.9918 8.76 14.4024 8.76C14.8184 8.76 15.1864 8.85067 15.5064 9.032C15.8318 9.21333 16.0851 9.464 16.2664 9.784C16.4531 10.104 16.5464 10.4747 16.5464 10.896C16.5464 11.312 16.4531 11.6827 16.2664 12.008C16.0851 12.328 15.8318 12.5813 15.5064 12.768C15.1811 12.9493 14.8131 13.04 14.4024 13.04ZM14.4024 12.536C14.7064 12.536 14.9758 12.4693 15.2104 12.336C15.4451 12.1973 15.6291 12.0053 15.7624 11.76C15.9011 11.5093 15.9704 11.2213 15.9704 10.896C15.9704 10.5653 15.9011 10.2773 15.7624 10.032C15.6291 9.78667 15.4451 9.59733 15.2104 9.464C14.9758 9.32533 14.7091 9.256 14.4104 9.256C14.1118 9.256 13.8451 9.32533 13.6104 9.464C13.3758 9.59733 13.1891 9.78667 13.0504 10.032C12.9118 10.2773 12.8424 10.5653 12.8424 10.896C12.8424 11.2213 12.9118 11.5093 13.0504 11.76C13.1891 12.0053 13.3758 12.1973 13.6104 12.336C13.8451 12.4693 14.1091 12.536 14.4024 12.536ZM18.8341 13.04C18.4874 13.04 18.1594 12.992 17.8501 12.896C17.5407 12.7947 17.2981 12.6693 17.1221 12.52L17.3781 12.072C17.5487 12.2 17.7674 12.312 18.0341 12.408C18.3007 12.4987 18.5807 12.544 18.8741 12.544C19.2741 12.544 19.5621 12.4827 19.7381 12.36C19.9141 12.232 20.0021 12.064 20.0021 11.856C20.0021 11.7013 19.9514 11.5813 19.8501 11.496C19.7541 11.4053 19.6261 11.3387 19.4661 11.296C19.3061 11.248 19.1274 11.208 18.9301 11.176C18.7327 11.144 18.5354 11.1067 18.3381 11.064C18.1461 11.0213 17.9701 10.96 17.8101 10.88C17.6501 10.7947 17.5194 10.68 17.4181 10.536C17.3221 10.392 17.2741 10.2 17.2741 9.96C17.2741 9.73067 17.3381 9.52533 17.4661 9.344C17.5941 9.16267 17.7807 9.02133 18.0261 8.92C18.2767 8.81333 18.5807 8.76 18.9381 8.76C19.2101 8.76 19.4821 8.79733 19.7541 8.872C20.0261 8.94133 20.2501 9.03467 20.4261 9.152L20.1781 9.608C19.9914 9.48 19.7914 9.38933 19.5781 9.336C19.3647 9.27733 19.1514 9.248 18.9381 9.248C18.5594 9.248 18.2794 9.31467 18.0981 9.448C17.9221 9.576 17.8341 9.74133 17.8341 9.944C17.8341 10.104 17.8821 10.2293 17.9781 10.32C18.0794 10.4107 18.2101 10.4827 18.3701 10.536C18.5354 10.584 18.7141 10.624 18.9061 10.656C19.1034 10.688 19.2981 10.728 19.4901 10.776C19.6874 10.8187 19.8661 10.88 20.0261 10.96C20.1914 11.0347 20.3221 11.144 20.4181 11.288C20.5194 11.4267 20.5701 11.6107 20.5701 11.84C20.5701 12.0853 20.5007 12.2987 20.3621 12.48C20.2287 12.656 20.0314 12.7947 19.7701 12.896C19.5141 12.992 19.2021 13.04 18.8341 13.04ZM23.3963 13.04C22.959 13.04 22.575 12.9493 22.2443 12.768C21.9136 12.5813 21.655 12.328 21.4683 12.008C21.2816 11.6827 21.1883 11.312 21.1883 10.896C21.1883 10.48 21.2763 10.112 21.4523 9.792C21.6336 9.472 21.879 9.22133 22.1883 9.04C22.503 8.85333 22.855 8.76 23.2443 8.76C23.639 8.76 23.9883 8.85067 24.2923 9.032C24.6016 9.208 24.8443 9.45867 25.0203 9.784C25.1963 10.104 25.2843 10.4747 25.2843 10.896C25.2843 10.9227 25.2816 10.952 25.2763 10.984C25.2763 11.0107 25.2763 11.04 25.2763 11.072H21.6203V10.648H24.9723L24.7483 10.816C24.7483 10.512 24.6816 10.2427 24.5483 10.008C24.4203 9.768 24.2443 9.58133 24.0203 9.448C23.7963 9.31467 23.5376 9.248 23.2443 9.248C22.9563 9.248 22.6976 9.31467 22.4683 9.448C22.239 9.58133 22.0603 9.768 21.9323 10.008C21.8043 10.248 21.7403 10.5227 21.7403 10.832V10.92C21.7403 11.24 21.8096 11.5227 21.9483 11.768C22.0923 12.008 22.2896 12.1973 22.5403 12.336C22.7963 12.4693 23.087 12.536 23.4123 12.536C23.6683 12.536 23.9056 12.4907 24.1243 12.4C24.3483 12.3093 24.5403 12.1707 24.7003 11.984L25.0203 12.352C24.8336 12.576 24.599 12.7467 24.3163 12.864C24.039 12.9813 23.7323 13.04 23.3963 13.04ZM29.8622 13.04C29.4675 13.04 29.1635 12.9333 28.9502 12.72C28.7369 12.5067 28.6302 12.2053 28.6302 11.816V7.872H29.1982V11.784C29.1982 12.0293 29.2595 12.2187 29.3822 12.352C29.5102 12.4853 29.6915 12.552 29.9262 12.552C30.1769 12.552 30.3849 12.48 30.5502 12.336L30.7502 12.744C30.6382 12.8453 30.5022 12.92 30.3422 12.968C30.1875 13.016 30.0275 13.04 29.8622 13.04ZM27.8782 9.272V8.8H30.4782V9.272H27.8782ZM33.9282 8.76C34.2695 8.76 34.5682 8.82667 34.8242 8.96C35.0855 9.088 35.2882 9.28533 35.4322 9.552C35.5815 9.81867 35.6562 10.1547 35.6562 10.56V13H35.0882V10.616C35.0882 10.1733 34.9762 9.84 34.7522 9.616C34.5335 9.38667 34.2242 9.272 33.8242 9.272C33.5255 9.272 33.2642 9.33333 33.0402 9.456C32.8215 9.57333 32.6509 9.74667 32.5282 9.976C32.4109 10.2 32.3522 10.472 32.3522 10.792V13H31.7842V7.064H32.3522V9.952L32.2402 9.736C32.3735 9.432 32.5869 9.19467 32.8802 9.024C33.1735 8.848 33.5229 8.76 33.9282 8.76ZM38.9744 13.04C38.5371 13.04 38.1531 12.9493 37.8224 12.768C37.4918 12.5813 37.2331 12.328 37.0464 12.008C36.8598 11.6827 36.7664 11.312 36.7664 10.896C36.7664 10.48 36.8544 10.112 37.0304 9.792C37.2118 9.472 37.4571 9.22133 37.7664 9.04C38.0811 8.85333 38.4331 8.76 38.8224 8.76C39.2171 8.76 39.5664 8.85067 39.8704 9.032C40.1798 9.208 40.4224 9.45867 40.5984 9.784C40.7744 10.104 40.8624 10.4747 40.8624 10.896C40.8624 10.9227 40.8598 10.952 40.8544 10.984C40.8544 11.0107 40.8544 11.04 40.8544 11.072H37.1984V10.648H40.5504L40.3264 10.816C40.3264 10.512 40.2598 10.2427 40.1264 10.008C39.9984 9.768 39.8224 9.58133 39.5984 9.448C39.3744 9.31467 39.1158 9.248 38.8224 9.248C38.5344 9.248 38.2758 9.31467 38.0464 9.448C37.8171 9.58133 37.6384 9.768 37.5104 10.008C37.3824 10.248 37.3184 10.5227 37.3184 10.832V10.92C37.3184 11.24 37.3878 11.5227 37.5264 11.768C37.6704 12.008 37.8678 12.1973 38.1184 12.336C38.3744 12.4693 38.6651 12.536 38.9904 12.536C39.2464 12.536 39.4838 12.4907 39.7024 12.4C39.9264 12.3093 40.1184 12.1707 40.2784 11.984L40.5984 12.352C40.4118 12.576 40.1771 12.7467 39.8944 12.864C39.6171 12.9813 39.3104 13.04 38.9744 13.04ZM44.2323 13V7.4H46.5123C47.1096 7.4 47.6323 7.52 48.0803 7.76C48.5336 7.99467 48.8856 8.32267 49.1363 8.744C49.387 9.16533 49.5123 9.65067 49.5123 10.2C49.5123 10.7493 49.387 11.2347 49.1363 11.656C48.8856 12.0773 48.5336 12.408 48.0803 12.648C47.6323 12.8827 47.1096 13 46.5123 13H44.2323ZM44.8243 12.488H46.4803C46.9763 12.488 47.4056 12.392 47.7683 12.2C48.1363 12.0027 48.4216 11.7333 48.6243 11.392C48.827 11.0453 48.9283 10.648 48.9283 10.2C48.9283 9.74667 48.827 9.34933 48.6243 9.008C48.4216 8.66667 48.1363 8.4 47.7683 8.208C47.4056 8.01067 46.9763 7.912 46.4803 7.912H44.8243V12.488ZM52.4337 13.04C52.0284 13.04 51.663 12.9493 51.3377 12.768C51.0177 12.5813 50.7644 12.328 50.5777 12.008C50.391 11.6827 50.2977 11.312 50.2977 10.896C50.2977 10.4747 50.391 10.104 50.5777 9.784C50.7644 9.464 51.0177 9.21333 51.3377 9.032C51.6577 8.85067 52.023 8.76 52.4337 8.76C52.8497 8.76 53.2177 8.85067 53.5377 9.032C53.863 9.21333 54.1164 9.464 54.2977 9.784C54.4844 10.104 54.5777 10.4747 54.5777 10.896C54.5777 11.312 54.4844 11.6827 54.2977 12.008C54.1164 12.328 53.863 12.5813 53.5377 12.768C53.2124 12.9493 52.8444 13.04 52.4337 13.04ZM52.4337 12.536C52.7377 12.536 53.007 12.4693 53.2417 12.336C53.4764 12.1973 53.6604 12.0053 53.7937 11.76C53.9324 11.5093 54.0017 11.2213 54.0017 10.896C54.0017 10.5653 53.9324 10.2773 53.7937 10.032C53.6604 9.78667 53.4764 9.59733 53.2417 9.464C53.007 9.32533 52.7404 9.256 52.4417 9.256C52.143 9.256 51.8764 9.32533 51.6417 9.464C51.407 9.59733 51.2204 9.78667 51.0817 10.032C50.943 10.2773 50.8737 10.5653 50.8737 10.896C50.8737 11.2213 50.943 11.5093 51.0817 11.76C51.2204 12.0053 51.407 12.1973 51.6417 12.336C51.8764 12.4693 52.1404 12.536 52.4337 12.536ZM57.4493 13.04C57.044 13.04 56.6786 12.9493 56.3533 12.768C56.0333 12.5813 55.78 12.328 55.5933 12.008C55.4066 11.6827 55.3133 11.312 55.3133 10.896C55.3133 10.4747 55.4066 10.104 55.5933 9.784C55.78 9.464 56.0333 9.21333 56.3533 9.032C56.6733 8.85067 57.0386 8.76 57.4493 8.76C57.8653 8.76 58.2333 8.85067 58.5533 9.032C58.8786 9.21333 59.132 9.464 59.3133 9.784C59.5 10.104 59.5933 10.4747 59.5933 10.896C59.5933 11.312 59.5 11.6827 59.3133 12.008C59.132 12.328 58.8786 12.5813 58.5533 12.768C58.228 12.9493 57.86 13.04 57.4493 13.04ZM57.4493 12.536C57.7533 12.536 58.0226 12.4693 58.2573 12.336C58.492 12.1973 58.676 12.0053 58.8093 11.76C58.948 11.5093 59.0173 11.2213 59.0173 10.896C59.0173 10.5653 58.948 10.2773 58.8093 10.032C58.676 9.78667 58.492 9.59733 58.2573 9.464C58.0226 9.32533 57.756 9.256 57.4573 9.256C57.1586 9.256 56.892 9.32533 56.6573 9.464C56.4226 9.59733 56.236 9.78667 56.0973 10.032C55.9586 10.2773 55.8893 10.5653 55.8893 10.896C55.8893 11.2213 55.9586 11.5093 56.0973 11.76C56.236 12.0053 56.4226 12.1973 56.6573 12.336C56.892 12.4693 57.156 12.536 57.4493 12.536ZM60.7529 13V8.8H61.2969V9.944L61.2409 9.744C61.3583 9.424 61.5556 9.18133 61.8329 9.016C62.1103 8.84533 62.4543 8.76 62.8649 8.76V9.312C62.8436 9.312 62.8223 9.312 62.8009 9.312C62.7796 9.30667 62.7583 9.304 62.7369 9.304C62.2943 9.304 61.9476 9.44 61.6969 9.712C61.4463 9.97867 61.3209 10.36 61.3209 10.856V13H60.7529Z" fill="white"/>
</g>
<defs>
<filter id="filter0_d_2_398" x="0.416016" y="7.06396" width="66.449" height="13.9841" filterUnits="userSpaceOnUse" color-interpolation-filters="sRGB">
<feFlood flood-opacity="0" result="BackgroundImageFix"/>
<feColorMatrix in="SourceAlpha" type="matrix" values="0 0 0 0 0 0 0 0 0 0 0 0 0 0 0 0 0 0 127 0" result="hardAlpha"/>
<feOffset dy="4"/>
<feGaussianBlur stdDeviation="2"/>
<feComposite in2="hardAlpha" operator="out"/>
<feColorMatrix type="matrix" values="0 0 0 0 0 0 0 0 0 0 0 0 0 0 0 0 0 0 0.25 0"/>
<feBlend mode="normal" in2="BackgroundImageFix" result="effect1_dropShadow_2_398"/>
<feBlend mode="normal" in="SourceGraphic" in2="effect1_dropShadow_2_398" result="shape"/>
</filter>
</defs>
</svg>
